<svg width="24" height="24" viewBox="0 0 24 24" fill="none" xmlns="http://www.w3.org/2000/svg">
<mask id="mask0_19_187" style="mask-type:alpha" maskUnits="userSpaceOnUse" x="0" y="0" width="24" height="24">
<rect width="24" height="24" fill="#D9D9D9"/>
</mask>
<g mask="url(#mask0_19_187)">
<path d="M11.3625 20.5978C10.8172 20.5978 10.3064 20.4665 9.83028 20.2038C9.35395 19.9412 8.9622 19.5785 8.65503 19.1158C8.41186 18.7427 8.3907 18.3575 8.59153 17.9603C8.79253 17.5633 9.1122 17.3648 9.55053 17.3648C9.7672 17.3648 9.96186 17.4285 10.1345 17.5558C10.3072 17.6832 10.4642 17.8262 10.6055 17.9848C10.6929 18.0935 10.8044 18.177 10.94 18.2353C11.0757 18.2937 11.2165 18.3228 11.3625 18.3228C11.6339 18.3228 11.8604 18.231 12.042 18.0473C12.2239 17.8637 12.3148 17.6362 12.3148 17.3648C12.3148 17.0933 12.2239 16.8668 12.042 16.6851C11.8604 16.5034 11.6339 16.4126 11.3625 16.4126H3.04778C2.72861 16.4126 2.45928 16.3028 2.23978 16.0833C2.02011 15.8637 1.91028 15.5943 1.91028 15.2751C1.91028 14.9559 2.02011 14.6865 2.23978 14.4668C2.45928 14.2473 2.72861 14.1376 3.04778 14.1376H11.3625C12.2597 14.1376 13.0219 14.4512 13.649 15.0783C14.2762 15.7055 14.5898 16.4677 14.5898 17.3648C14.5898 18.2618 14.2762 19.0249 13.649 19.6541C13.0219 20.2833 12.2597 20.5978 11.3625 20.5978ZM3.04778 9.86259C2.72861 9.86259 2.45928 9.75284 2.23978 9.53334C2.02011 9.31368 1.91028 9.04426 1.91028 8.72509C1.91028 8.40593 2.02011 8.13651 2.23978 7.91684C2.45928 7.69734 2.72861 7.58759 3.04778 7.58759H15.3625C15.7672 7.58759 16.1104 7.44676 16.392 7.16509C16.6739 6.88343 16.8148 6.54018 16.8148 6.13534C16.8148 5.73068 16.6739 5.38651 16.392 5.10284C16.1104 4.81918 15.7672 4.67734 15.3625 4.67734C15.1159 4.67734 14.8828 4.73384 14.6633 4.84684C14.4439 4.95984 14.2696 5.12309 14.1403 5.33659C14.0036 5.54443 13.841 5.72951 13.6525 5.89184C13.4639 6.05418 13.2429 6.13534 12.9898 6.13534C12.5926 6.13534 12.2799 5.97851 12.0515 5.66484C11.8234 5.35101 11.7852 5.02451 11.937 4.68534C12.2102 3.98934 12.6589 3.43484 13.2833 3.02184C13.9074 2.60884 14.6005 2.40234 15.3625 2.40234C16.393 2.40234 17.2719 2.76593 17.999 3.49309C18.7262 4.22026 19.0898 5.10101 19.0898 6.13534C19.0898 7.16584 18.7262 8.04468 17.999 8.77184C17.2719 9.49901 16.393 9.86259 15.3625 9.86259H3.04778ZM20.0398 17.9273C19.6586 18.1212 19.2838 18.1113 18.9153 17.8976C18.5468 17.6841 18.3625 17.3681 18.3625 16.9496C18.3625 16.6963 18.4447 16.4795 18.609 16.2993C18.7734 16.119 18.9595 15.9566 19.1675 15.8121C19.3769 15.6788 19.537 15.5033 19.648 15.2858C19.7592 15.0685 19.8148 14.8365 19.8148 14.5898C19.8148 14.185 19.6739 13.8418 19.392 13.5601C19.1104 13.2784 18.7672 13.1376 18.3625 13.1376H3.04778C2.72861 13.1376 2.45928 13.0278 2.23978 12.8083C2.02011 12.5887 1.91028 12.3193 1.91028 12.0001C1.91028 11.6809 2.02011 11.4115 2.23978 11.1918C2.45928 10.9723 2.72861 10.8626 3.04778 10.8626H18.3625C19.393 10.8626 20.2719 11.2262 20.999 11.9533C21.7262 12.6805 22.0898 13.5593 22.0898 14.5898C22.0898 15.3057 21.9074 15.9631 21.5428 16.5621C21.1781 17.1609 20.6771 17.616 20.0398 17.9273Z" fill="black"/>
</g>
</svg>
