<svg width="24" height="24" viewBox="0 0 24 24" fill="none" xmlns="http://www.w3.org/2000/svg">
<mask id="mask0_21_954" style="mask-type:alpha" maskUnits="userSpaceOnUse" x="0" y="0" width="24" height="24">
<rect width="24" height="24" fill="#D9D9D9"/>
</mask>
<g mask="url(#mask0_21_954)">
<path d="M12 12.8926C11.6808 12.8926 11.4114 12.7828 11.1918 12.5631C10.9723 12.3436 10.8625 12.0743 10.8625 11.7551V6.14785L7.18376 9.8076C6.97243 10.0229 6.71035 10.1338 6.39751 10.1401C6.08468 10.1464 5.81635 10.0356 5.59251 9.8076C5.38118 9.59643 5.27551 9.33126 5.27551 9.0121C5.27551 8.69293 5.38118 8.42768 5.59251 8.21635L11.2043 2.60435C11.3163 2.49251 11.4396 2.41176 11.5743 2.3621C11.7088 2.31243 11.8507 2.2876 12 2.2876C12.1493 2.2876 12.2923 2.31243 12.4288 2.3621C12.5654 2.41176 12.6898 2.49251 12.8018 2.60435L18.4135 8.21635C18.6248 8.42768 18.7315 8.68876 18.7335 8.9996C18.7355 9.31043 18.6288 9.57976 18.4135 9.8076C18.1857 10.0356 17.9163 10.1496 17.6055 10.1496C17.2947 10.1496 17.0253 10.0356 16.7973 9.8076L13.1375 6.14785V11.7551C13.1375 12.0743 13.0278 12.3436 12.8083 12.5631C12.5886 12.7828 12.3192 12.8926 12 12.8926ZM12 17.9283C11.6808 17.9283 11.4114 17.8186 11.1918 17.5991C10.9723 17.3794 10.8625 17.11 10.8625 16.7908V16.0301C10.8625 15.7108 10.9723 15.4413 11.1918 15.2218C11.4114 15.0023 11.6808 14.8926 12 14.8926C12.3192 14.8926 12.5886 15.0023 12.8083 15.2218C13.0278 15.4413 13.1375 15.7108 13.1375 16.0301V16.7908C13.1375 17.11 13.0278 17.3794 12.8083 17.5991C12.5886 17.8186 12.3192 17.9283 12 17.9283ZM12 22.2033C11.6808 22.2033 11.4114 22.0936 11.1918 21.8741C10.9723 21.6544 10.8625 21.385 10.8625 21.0658C10.8625 20.7467 10.9723 20.4773 11.1918 20.2576C11.4114 20.0381 11.6808 19.9283 12 19.9283C12.3192 19.9283 12.5886 20.0381 12.8083 20.2576C13.0278 20.4773 13.1375 20.7467 13.1375 21.0658C13.1375 21.385 13.0278 21.6544 12.8083 21.8741C12.5886 22.0936 12.3192 22.2033 12 22.2033Z" fill="black"/>
</g>
</svg>
