<svg width="24" height="24" viewBox="0 0 24 24" fill="none" xmlns="http://www.w3.org/2000/svg">
<mask id="mask0_19_169" style="mask-type:alpha" maskUnits="userSpaceOnUse" x="0" y="0" width="24" height="24">
<rect width="24" height="24" fill="#D9D9D9"/>
</mask>
<g mask="url(#mask0_19_169)">
<path d="M12 21.7032C9.7315 21.7032 7.79717 20.9186 6.197 19.3495C4.59684 17.7803 3.79675 15.8678 3.79675 13.612C3.79675 12.5301 4.00592 11.496 4.42425 10.5097C4.84259 9.52354 5.43867 8.65379 6.2125 7.90046L10.4088 3.77921C10.6366 3.56804 10.8873 3.40646 11.1608 3.29446C11.4344 3.18263 11.7142 3.12671 12 3.12671C12.2858 3.12671 12.5656 3.18263 12.8393 3.29446C13.1128 3.40646 13.3634 3.56804 13.5913 3.77921L17.7875 7.90046C18.5613 8.65379 19.1574 9.52354 19.5758 10.5097C19.9941 11.496 20.2033 12.5301 20.2033 13.612C20.2033 15.8678 19.4032 17.7803 17.803 19.3495C16.2028 20.9186 14.2685 21.7032 12 21.7032Z" fill="black"/>
</g>
</svg>
