<svg width="24" height="24" viewBox="0 0 24 24" fill="none" xmlns="http://www.w3.org/2000/svg">
<mask id="mask0_19_193" style="mask-type:alpha" maskUnits="userSpaceOnUse" x="0" y="0" width="24" height="24">
<rect width="24" height="24" fill="#D9D9D9"/>
</mask>
<g mask="url(#mask0_19_193)">
<path d="M11.9985 21.4924C11.7502 21.4924 11.5023 21.4487 11.2548 21.3614C11.0071 21.274 10.7859 21.143 10.5913 20.9684C9.48409 19.9564 8.50584 18.9734 7.6565 18.0194C6.80717 17.0654 6.09842 16.1386 5.53025 15.2391C4.96192 14.3395 4.53092 13.4681 4.23725 12.6251C3.94359 11.7821 3.79675 10.9657 3.79675 10.1759C3.79675 7.62121 4.62134 5.58605 6.2705 4.07038C7.91967 2.55455 9.8295 1.79663 12 1.79663C14.1705 1.79663 16.0803 2.55455 17.7295 4.07038C19.3787 5.58605 20.2033 7.62121 20.2033 10.1759C20.2033 10.9657 20.0564 11.7821 19.7628 12.6251C19.4691 13.4681 19.0381 14.3395 18.4698 15.2391C17.9016 16.1386 17.1928 17.0654 16.3435 18.0194C15.4942 18.9734 14.5159 19.9564 13.4088 20.9684C13.2136 21.143 12.9918 21.274 12.7435 21.3614C12.4952 21.4487 12.2468 21.4924 11.9985 21.4924ZM12 12.0596C12.57 12.0596 13.0558 11.8588 13.4573 11.4571C13.8589 11.0556 14.0598 10.5699 14.0598 9.99988C14.0598 9.42988 13.8589 8.94413 13.4573 8.54263C13.0558 8.14096 12.57 7.94013 12 7.94013C11.43 7.94013 10.9443 8.14096 10.5428 8.54263C10.1411 8.94413 9.94025 9.42988 9.94025 9.99988C9.94025 10.5699 10.1411 11.0556 10.5428 11.4571C10.9443 11.8588 11.43 12.0596 12 12.0596Z" fill="black"/>
</g>
</svg>
