<svg width="24" height="24" viewBox="0 0 24 24" fill="none" xmlns="http://www.w3.org/2000/svg">
<mask id="mask0_21_437" style="mask-type:alpha" maskUnits="userSpaceOnUse" x="0" y="0" width="24" height="24">
<rect width="24" height="24" fill="#D9D9D9"/>
</mask>
<g mask="url(#mask0_21_437)">
<path d="M12.1 22.1194C10.684 22.1194 9.35658 21.8497 8.11774 21.3104C6.87874 20.7712 5.79908 20.0415 4.87874 19.1212C3.95841 18.2008 3.22866 17.1212 2.68949 15.8822C2.15016 14.6433 1.88049 13.3159 1.88049 11.8999C1.88049 9.78658 2.46749 7.86516 3.64149 6.13566C4.81566 4.40633 6.39116 3.16583 8.36799 2.41416C8.80233 2.23299 9.21474 2.27083 9.60524 2.52766C9.99558 2.78449 10.1924 3.14641 10.1957 3.61341C10.1856 4.99024 10.4255 6.30441 10.9155 7.55591C11.4055 8.80741 12.1366 9.91916 13.1087 10.8912C14.0807 11.8633 15.1915 12.5934 16.441 13.0814C17.6905 13.5694 19.0017 13.8103 20.3745 13.8042C20.8755 13.8115 21.2531 13.9982 21.5072 14.3644C21.7614 14.7304 21.8059 15.129 21.6407 15.5602C20.8756 17.5443 19.6275 19.1336 17.8965 20.3279C16.1655 21.5222 14.2333 22.1194 12.1 22.1194Z" fill="black"/>
</g>
</svg>
