<svg width="24" height="24" viewBox="0 0 24 24" fill="none" xmlns="http://www.w3.org/2000/svg">
<mask id="mask0_66_178" style="mask-type:alpha" maskUnits="userSpaceOnUse" x="0" y="0" width="24" height="24">
<rect width="24" height="24" fill="#D9D9D9"/>
</mask>
<g mask="url(#mask0_66_178)">
<path d="M12 22.2031C10.6015 22.2031 9.282 21.9355 8.0415 21.4001C6.801 20.865 5.71775 20.1343 4.79175 19.2081C3.86559 18.2821 3.13492 17.1989 2.59975 15.9584C2.06442 14.7179 1.79675 13.3984 1.79675 11.9999C1.79675 10.588 2.06434 9.26555 2.5995 8.03238C3.13484 6.79921 3.8655 5.71913 4.7915 4.79213C5.7175 3.86513 6.80075 3.13413 8.04125 2.59913C9.28192 2.06413 10.6015 1.79663 12 1.79663C12.3192 1.79663 12.5886 1.90638 12.8083 2.12588C13.0278 2.34555 13.1375 2.61496 13.1375 2.93413C13.1375 3.2533 13.0278 3.52271 12.8083 3.74238C12.5886 3.96188 12.3192 4.07163 12 4.07163C9.80317 4.07163 7.93259 4.8438 6.38825 6.38813C4.84392 7.93246 4.07175 9.80305 4.07175 11.9999C4.07175 14.1965 4.84392 16.0671 6.38825 17.6116C7.93259 19.156 9.80317 19.9281 12 19.9281C14.1967 19.9281 16.0673 19.156 17.6118 17.6116C19.1561 16.0673 19.9283 14.1967 19.9283 11.9999C19.9283 11.6807 20.038 11.4113 20.2575 11.1916C20.4772 10.9721 20.7466 10.8624 21.0658 10.8624C21.3849 10.8624 21.6543 10.9721 21.874 11.1916C22.0935 11.4113 22.2033 11.6807 22.2033 11.9999C22.2033 13.3984 21.9357 14.718 21.4005 15.9586C20.8652 17.1993 20.1345 18.2827 19.2085 19.2089C18.2825 20.135 17.2027 20.8656 15.969 21.4006C14.7353 21.9356 13.4123 22.2031 12 22.2031Z" fill="black"/>
</g>
</svg>
