<svg width="24" height="24" viewBox="0 0 24 24" fill="none" xmlns="http://www.w3.org/2000/svg">
<mask id="mask0_19_175" style="mask-type:alpha" maskUnits="userSpaceOnUse" x="0" y="0" width="24" height="24">
<rect width="24" height="24" fill="#D9D9D9"/>
</mask>
<g mask="url(#mask0_19_175)">
<path d="M4.98573 11.9597C4.7039 12.109 4.4149 12.1319 4.11873 12.0282C3.82257 11.9245 3.59982 11.7318 3.45048 11.4499L0.980483 6.50969C0.831149 6.22786 0.808316 5.93886 0.911983 5.64269C1.01565 5.34636 1.2084 5.12561 1.49023 4.98044C1.77207 4.83511 2.06107 4.81327 2.35723 4.91494C2.65357 5.01661 2.87432 5.20836 3.01948 5.49019L5.48973 10.4304C5.6349 10.7123 5.65773 11.0003 5.55823 11.2944C5.45857 11.5886 5.26773 11.8104 4.98573 11.9597ZM8.51573 19.0194C8.2339 19.1688 7.9439 19.1926 7.64573 19.0909C7.3474 18.9893 7.12365 18.7955 6.97448 18.5097L5.00423 14.5694C4.85907 14.2876 4.83823 13.9996 4.94173 13.7054C5.0454 13.4113 5.23815 13.1895 5.51998 13.0402C5.80198 12.8909 6.09007 12.868 6.38423 12.9717C6.6784 13.0754 6.90015 13.2681 7.04948 13.5499L9.02548 17.4902C9.17082 17.772 9.19265 18.06 9.09098 18.3542C8.98932 18.6485 8.79757 18.8703 8.51573 19.0194ZM10.53 13.9597C10.248 14.109 9.9589 14.1319 9.66273 14.0282C9.36657 13.9245 9.14382 13.7318 8.99448 13.4499L5.52448 6.50969C5.37515 6.22786 5.35232 5.93886 5.45598 5.64269C5.55965 5.34636 5.7524 5.12561 6.03423 4.98044C6.31607 4.83511 6.60507 4.81327 6.90123 4.91494C7.19757 5.01661 7.42032 5.20836 7.56948 5.49019L11.0397 12.4304C11.1849 12.7123 11.2067 13.0003 11.1052 13.2944C11.0036 13.5886 10.8118 13.8104 10.53 13.9597ZM12.6857 8.95969C12.4039 9.10902 12.1149 9.13286 11.8187 9.03119C11.5226 8.92952 11.2998 8.73577 11.1505 8.44994L10.1995 6.50969C10.0541 6.22786 10.0333 5.93886 10.137 5.64269C10.2406 5.34636 10.4334 5.12361 10.7152 4.97444C10.9971 4.82511 11.2819 4.80327 11.5697 4.90894C11.8577 5.01461 12.0763 5.20836 12.2255 5.49019L13.1957 7.43044C13.3409 7.71227 13.3627 8.00028 13.2612 8.29444C13.1596 8.58861 12.9677 8.81036 12.6857 8.95969ZM13.3157 18.9944C13.0339 19.1438 12.7439 19.1708 12.4457 19.0754C12.1474 18.9801 11.9236 18.7915 11.7745 18.5097L10.8042 16.5694C10.6551 16.2876 10.6332 15.9986 10.7387 15.7024C10.8444 15.4063 11.0381 15.1835 11.32 15.0342C11.602 14.8889 11.8901 14.868 12.1842 14.9717C12.4784 15.0754 12.7001 15.2681 12.8495 15.5499L13.8255 17.4842C13.9748 17.766 13.9977 18.0509 13.894 18.3387C13.7903 18.6267 13.5976 18.8453 13.3157 18.9944ZM17.9657 18.9944C17.6839 19.1438 17.3949 19.1708 17.0987 19.0754C16.8024 18.9801 16.5796 18.7915 16.4305 18.5097L12.9602 11.5694C12.8151 11.2876 12.7932 10.9996 12.8947 10.7054C12.9964 10.4113 13.1881 10.1895 13.47 10.0402C13.752 9.89086 14.0411 9.86802 14.3372 9.97169C14.6334 10.0754 14.8561 10.2681 15.0055 10.5499L18.4755 17.4842C18.6208 17.766 18.6426 18.0509 18.541 18.3387C18.4393 18.6267 18.2476 18.8453 17.9657 18.9944ZM19.4857 12.9597C19.2039 13.109 18.9139 13.1319 18.6157 13.0282C18.3176 12.9245 18.0938 12.7318 17.9445 12.4499L14.9745 6.50969C14.8251 6.22786 14.8033 5.93886 14.909 5.64269C15.0146 5.34636 15.2084 5.12361 15.4902 4.97444C15.7721 4.82511 16.0601 4.80327 16.3542 4.90894C16.6486 5.01461 16.8703 5.20836 17.0195 5.49019L19.9897 11.4304C20.1349 11.7123 20.1577 12.0003 20.0582 12.2944C19.9586 12.5886 19.7677 12.8104 19.4857 12.9597ZM22.5157 19.0194C22.2339 19.1688 21.9439 19.1916 21.6457 19.0879C21.3474 18.9843 21.1237 18.7915 20.9745 18.5097L19.5042 15.5694C19.3551 15.2876 19.3332 14.9986 19.4387 14.7024C19.5444 14.4063 19.7381 14.1835 20.02 14.0342C20.302 13.8849 20.5901 13.863 20.8842 13.9687C21.1784 14.0744 21.4001 14.2681 21.5495 14.5499L23.0195 17.4902C23.1648 17.772 23.1877 18.06 23.088 18.3542C22.9883 18.6485 22.7976 18.8703 22.5157 19.0194Z" fill="black"/>
</g>
</svg>
