<svg width="24" height="24" viewBox="0 0 24 24" fill="none" xmlns="http://www.w3.org/2000/svg">
<mask id="mask0_21_796" style="mask-type:alpha" maskUnits="userSpaceOnUse" x="0" y="0" width="24" height="24">
<rect width="24" height="24" fill="#D9D9D9"/>
</mask>
<g mask="url(#mask0_21_796)">
<path d="M9.4522 16.1375C7.59953 16.1375 6.03011 15.4945 4.74395 14.2083C3.45778 12.922 2.8147 11.3525 2.8147 9.50005C2.8147 7.64755 3.45778 6.07813 4.74395 4.7918C6.03011 3.50563 7.59953 2.86255 9.4522 2.86255C11.3047 2.86255 12.874 3.50563 14.1602 4.7918C15.4465 6.07813 16.0897 7.64755 16.0897 9.50005C16.0897 10.2414 15.977 10.934 15.7517 11.578C15.5262 12.222 15.2214 12.79 14.8374 13.282L20.3897 18.8403C20.6009 19.0555 20.7064 19.3216 20.7064 19.6388C20.7064 19.9561 20.5989 20.2204 20.3837 20.4315C20.1724 20.6427 19.9071 20.7483 19.5879 20.7483C19.2688 20.7483 19.0036 20.6427 18.7924 20.4315L13.2462 14.8853C12.7502 15.2695 12.1782 15.5742 11.5302 15.7995C10.8822 16.0249 10.1895 16.1375 9.4522 16.1375ZM9.4522 13.8625C10.6662 13.8625 11.6968 13.439 12.5439 12.5918C13.3911 11.7448 13.8147 10.7142 13.8147 9.50005C13.8147 8.28588 13.3911 7.2553 12.5439 6.4083C11.6968 5.56113 10.6662 5.13755 9.4522 5.13755C8.23803 5.13755 7.20736 5.56113 6.3602 6.4083C5.5132 7.2553 5.0897 8.28588 5.0897 9.50005C5.0897 10.7142 5.5132 11.7448 6.3602 12.5918C7.20736 13.439 8.23803 13.8625 9.4522 13.8625Z" fill="black"/>
</g>
</svg>
