<svg width="24" height="24" viewBox="0 0 24 24" fill="none" xmlns="http://www.w3.org/2000/svg">
<mask id="mask0_19_181" style="mask-type:alpha" maskUnits="userSpaceOnUse" x="0" y="0" width="24" height="24">
<rect width="24" height="24" fill="#D9D9D9"/>
</mask>
<g mask="url(#mask0_19_181)">
<path d="M14.1556 11.0896C13.8467 11.0896 13.5879 10.9852 13.3791 10.7764C13.1702 10.5674 13.0658 10.3085 13.0658 9.99988C13.0658 9.69121 13.1702 9.43238 13.3791 9.22338C13.5879 9.01455 13.8467 8.91013 14.1556 8.91013H17.2511C17.5599 8.91013 17.8187 9.01455 18.0276 9.22338C18.2364 9.43238 18.3408 9.69121 18.3408 9.99988C18.3408 10.3085 18.2364 10.5674 18.0276 10.7764C17.8187 10.9852 17.5599 11.0896 17.2511 11.0896H14.1556ZM14.1556 6.91013C13.8467 6.91013 13.5879 6.80438 13.3791 6.59288C13.1702 6.38121 13.0658 6.1218 13.0658 5.81463C13.0658 5.5073 13.1702 5.24888 13.3791 5.03938C13.5879 4.82971 13.8467 4.72488 14.1556 4.72488H20.2511C20.5599 4.72488 20.8187 4.8293 21.0276 5.03813C21.2364 5.24697 21.3408 5.5058 21.3408 5.81463C21.3408 6.1218 21.2364 6.38121 21.0276 6.59288C20.8187 6.80438 20.5599 6.91013 20.2511 6.91013H14.1556ZM7.8153 21.2031C6.3758 21.2031 5.14964 20.6958 4.1368 19.6811C3.12397 18.6665 2.61755 17.4394 2.61755 15.9999C2.61755 15.1879 2.79255 14.4281 3.14255 13.7206C3.49255 13.013 3.98422 12.4095 4.61755 11.9101V5.99988C4.61755 5.11005 4.92847 4.35371 5.5503 3.73088C6.17214 3.10805 6.9273 2.79663 7.8158 2.79663C8.70414 2.79663 9.45997 3.10805 10.0833 3.73088C10.7065 4.35371 11.0181 5.11005 11.0181 5.99988V11.9101C11.6514 12.4095 12.1431 13.013 12.4931 13.7206C12.8431 14.4281 13.0181 15.1879 13.0181 15.9999C13.0181 17.4394 12.5107 18.6665 11.4961 19.6811C10.4816 20.6958 9.25464 21.2031 7.8153 21.2031ZM4.89255 15.9999H10.7431C10.7431 15.5005 10.6319 15.0376 10.4096 14.6111C10.1872 14.1845 9.87647 13.8315 9.4773 13.5521L8.74305 13.0179V5.99988C8.74305 5.74038 8.65314 5.5208 8.4733 5.34113C8.29364 5.16147 8.07414 5.07163 7.8148 5.07163C7.5553 5.07163 7.33672 5.16147 7.15905 5.34113C6.98139 5.5208 6.89255 5.74038 6.89255 5.99988V13.0179L6.1643 13.5521C5.76097 13.8355 5.44814 14.1905 5.2258 14.6171C5.00364 15.044 4.89255 15.5049 4.89255 15.9999Z" fill="black"/>
</g>
</svg>
