<svg width="80" height="60" viewBox="0 0 80 60" fill="none" xmlns="http://www.w3.org/2000/svg">
<g clip-path="url(#clip0_69_978)">
<path d="M0 0H80V60H0V0Z" fill="#EE1C25"/>
<path d="M0 0H80V40H0V0Z" fill="#0B4EA2"/>
<path d="M0 0H80V20H0V0Z" fill="white"/>
<path d="M29.125 46.3499C23.75 43.7624 16.05 38.6124 16.05 28.4499C16.05 18.2749 16.55 13.6499 16.55 13.6499H41.7125C41.7125 13.6499 42.2 18.2749 42.2 28.4499C42.2 38.6249 34.5 43.7499 29.125 46.3499Z" fill="white"/>
<path d="M29.125 45C24.1875 42.625 17.125 37.9 17.125 28.575C17.125 19.25 17.575 15 17.575 15H40.675C40.675 15 41.1125 19.25 41.1125 28.575C41.125 37.9125 34.0625 42.625 29.125 45Z" fill="#EE1C25"/>
<path d="M30.175 26.1249C31.5125 26.1499 34.125 26.1999 36.4375 25.4249C36.4375 25.4249 36.3875 26.2624 36.3875 27.2249C36.3875 28.1874 36.45 29.0249 36.45 29.0249C34.325 28.3124 31.6875 28.2999 30.175 28.3124V33.4624H28.075V28.3124C26.575 28.2999 23.9375 28.3124 21.8125 29.0249C21.8125 29.0249 21.875 28.1874 21.875 27.2249C21.875 26.2499 21.8125 25.4249 21.8125 25.4249C24.125 26.1999 26.7375 26.1499 28.0625 26.1249V22.8874C26.85 22.8874 25.1 22.9374 23.1125 23.5999C23.1125 23.5999 23.175 22.7749 23.175 21.7999C23.175 20.8374 23.1125 19.9999 23.1125 19.9999C25.1 20.6624 26.85 20.7249 28.0625 20.7124C28 18.6624 27.4 16.0874 27.4 16.0874C27.4 16.0874 28.6375 16.1749 29.125 16.1749C29.625 16.1749 30.85 16.0874 30.85 16.0874C30.85 16.0874 30.25 18.6624 30.1875 20.7124C31.4 20.7249 33.15 20.6624 35.1375 19.9999C35.1375 19.9999 35.075 20.8374 35.075 21.7999C35.075 22.7749 35.1375 23.5999 35.1375 23.5999C33.5356 23.0834 31.8576 22.8424 30.175 22.8874V26.1374V26.1249Z" fill="white"/>
<path d="M29.125 32.9126C26.6375 32.9126 25.3125 36.3501 25.3125 36.3501C25.3125 36.3501 24.5625 34.7251 22.5375 34.7251C21.1625 34.7251 20.1625 35.9376 19.5125 37.0751C22.0125 41.0376 26 43.4876 29.125 45.0001C32.25 43.5001 36.25 41.0376 38.7375 37.0751C38.0875 35.9501 37.0875 34.7251 35.7125 34.7251C33.6875 34.7251 32.9375 36.3501 32.9375 36.3501C32.9375 36.3501 31.625 32.9126 29.125 32.9126Z" fill="#0B4EA2"/>
</g>
<defs>
<clipPath id="clip0_69_978">
<rect width="80" height="60" fill="white"/>
</clipPath>
</defs>
</svg>
