<svg width="100" height="100" viewBox="0 0 100 100" fill="none" xmlns="http://www.w3.org/2000/svg">
<mask id="mask0_212_287" style="mask-type:alpha" maskUnits="userSpaceOnUse" x="0" y="0" width="100" height="100">
<rect width="100" height="100" fill="#D9D9D9"/>
</mask>
<g mask="url(#mask0_212_287)">
<path d="M27.1584 84.1797C20.6063 84.1797 15.0077 81.9176 10.3625 77.3933C5.71741 72.869 3.39484 67.3391 3.39484 60.8037C3.39484 55.2211 5.03928 50.2325 8.32817 45.8381C11.6164 41.4443 15.9577 38.6405 21.3521 37.4266C23.1875 30.9718 26.7511 25.7568 32.0428 21.7818C37.3337 17.8068 43.3195 15.8193 50 15.8193C58.2084 15.8193 65.1962 18.6575 70.9636 24.3339C76.7309 30.0103 79.7059 36.944 79.8886 45.135C84.7302 45.8732 88.7268 48.0888 91.8782 51.7818C95.0296 55.4742 96.6052 59.7662 96.6052 64.6579C96.6052 70.0822 94.7077 74.6919 90.9125 78.487C87.1174 82.2822 82.5077 84.1797 77.0834 84.1797H27.1584Z" fill="#33A0FA"/>
</g>
</svg>
