<svg xmlns="http://www.w3.org/2000/svg" xmlns:xlink="http://www.w3.org/1999/xlink"><defs><style>
    .sprite-symbol-usage {display: none;}
    .sprite-symbol-usage:target {display: inline;}
  </style><symbol viewBox="0 0 24 24" id="air"><g mask="url(#air_mask0_19_187)"><path d="M11.3625 20.5978C10.8172 20.5978 10.3064 20.4665 9.83028 20.2038C9.35395 19.9412 8.9622 19.5785 8.65503 19.1158C8.41186 18.7427 8.3907 18.3575 8.59153 17.9603C8.79253 17.5633 9.1122 17.3648 9.55053 17.3648C9.7672 17.3648 9.96186 17.4285 10.1345 17.5558C10.3072 17.6832 10.4642 17.8262 10.6055 17.9848C10.6929 18.0935 10.8044 18.177 10.94 18.2353C11.0757 18.2937 11.2165 18.3228 11.3625 18.3228C11.6339 18.3228 11.8604 18.231 12.042 18.0473C12.2239 17.8637 12.3148 17.6362 12.3148 17.3648C12.3148 17.0933 12.2239 16.8668 12.042 16.6851C11.8604 16.5034 11.6339 16.4126 11.3625 16.4126H3.04778C2.72861 16.4126 2.45928 16.3028 2.23978 16.0833C2.02011 15.8637 1.91028 15.5943 1.91028 15.2751C1.91028 14.9559 2.02011 14.6865 2.23978 14.4668C2.45928 14.2473 2.72861 14.1376 3.04778 14.1376H11.3625C12.2597 14.1376 13.0219 14.4512 13.649 15.0783C14.2762 15.7055 14.5898 16.4677 14.5898 17.3648C14.5898 18.2618 14.2762 19.0249 13.649 19.6541C13.0219 20.2833 12.2597 20.5978 11.3625 20.5978ZM3.04778 9.86259C2.72861 9.86259 2.45928 9.75284 2.23978 9.53334C2.02011 9.31368 1.91028 9.04426 1.91028 8.72509C1.91028 8.40593 2.02011 8.13651 2.23978 7.91684C2.45928 7.69734 2.72861 7.58759 3.04778 7.58759H15.3625C15.7672 7.58759 16.1104 7.44676 16.392 7.16509C16.6739 6.88343 16.8148 6.54018 16.8148 6.13534C16.8148 5.73068 16.6739 5.38651 16.392 5.10284C16.1104 4.81918 15.7672 4.67734 15.3625 4.67734C15.1159 4.67734 14.8828 4.73384 14.6633 4.84684C14.4439 4.95984 14.2696 5.12309 14.1403 5.33659C14.0036 5.54443 13.841 5.72951 13.6525 5.89184C13.4639 6.05418 13.2429 6.13534 12.9898 6.13534C12.5926 6.13534 12.2799 5.97851 12.0515 5.66484C11.8234 5.35101 11.7852 5.02451 11.937 4.68534C12.2102 3.98934 12.6589 3.43484 13.2833 3.02184C13.9074 2.60884 14.6005 2.40234 15.3625 2.40234C16.393 2.40234 17.2719 2.76593 17.999 3.49309C18.7262 4.22026 19.0898 5.10101 19.0898 6.13534C19.0898 7.16584 18.7262 8.04468 17.999 8.77184C17.2719 9.49901 16.393 9.86259 15.3625 9.86259H3.04778ZM20.0398 17.9273C19.6586 18.1212 19.2838 18.1113 18.9153 17.8976C18.5468 17.6841 18.3625 17.3681 18.3625 16.9496C18.3625 16.6963 18.4447 16.4795 18.609 16.2993C18.7734 16.119 18.9595 15.9566 19.1675 15.8121C19.3769 15.6788 19.537 15.5033 19.648 15.2858C19.7592 15.0685 19.8148 14.8365 19.8148 14.5898C19.8148 14.185 19.6739 13.8418 19.392 13.5601C19.1104 13.2784 18.7672 13.1376 18.3625 13.1376H3.04778C2.72861 13.1376 2.45928 13.0278 2.23978 12.8083C2.02011 12.5887 1.91028 12.3193 1.91028 12.0001C1.91028 11.6809 2.02011 11.4115 2.23978 11.1918C2.45928 10.9723 2.72861 10.8626 3.04778 10.8626H18.3625C19.393 10.8626 20.2719 11.2262 20.999 11.9533C21.7262 12.6805 22.0898 13.5593 22.0898 14.5898C22.0898 15.3057 21.9074 15.9631 21.5428 16.5621C21.1781 17.1609 20.6771 17.616 20.0398 17.9273Z" /></g></symbol><mask id="air_mask0_19_187" style="mask-type:alpha" maskUnits="userSpaceOnUse" x="0" y="0" width="24" height="24"><rect width="24" height="24" fill="#D9D9D9" /></mask><symbol viewBox="0 0 24 24" id="arrow-up"><g mask="url(#arrow-up_mask0_21_954)"><path d="M12 12.8926C11.6808 12.8926 11.4114 12.7828 11.1918 12.5631C10.9723 12.3436 10.8625 12.0743 10.8625 11.7551V6.14785L7.18376 9.8076C6.97243 10.0229 6.71035 10.1338 6.39751 10.1401C6.08468 10.1464 5.81635 10.0356 5.59251 9.8076C5.38118 9.59643 5.27551 9.33126 5.27551 9.0121C5.27551 8.69293 5.38118 8.42768 5.59251 8.21635L11.2043 2.60435C11.3163 2.49251 11.4396 2.41176 11.5743 2.3621C11.7088 2.31243 11.8507 2.2876 12 2.2876C12.1493 2.2876 12.2923 2.31243 12.4288 2.3621C12.5654 2.41176 12.6898 2.49251 12.8018 2.60435L18.4135 8.21635C18.6248 8.42768 18.7315 8.68876 18.7335 8.9996C18.7355 9.31043 18.6288 9.57976 18.4135 9.8076C18.1857 10.0356 17.9163 10.1496 17.6055 10.1496C17.2947 10.1496 17.0253 10.0356 16.7973 9.8076L13.1375 6.14785V11.7551C13.1375 12.0743 13.0278 12.3436 12.8083 12.5631C12.5886 12.7828 12.3192 12.8926 12 12.8926ZM12 17.9283C11.6808 17.9283 11.4114 17.8186 11.1918 17.5991C10.9723 17.3794 10.8625 17.11 10.8625 16.7908V16.0301C10.8625 15.7108 10.9723 15.4413 11.1918 15.2218C11.4114 15.0023 11.6808 14.8926 12 14.8926C12.3192 14.8926 12.5886 15.0023 12.8083 15.2218C13.0278 15.4413 13.1375 15.7108 13.1375 16.0301V16.7908C13.1375 17.11 13.0278 17.3794 12.8083 17.5991C12.5886 17.8186 12.3192 17.9283 12 17.9283ZM12 22.2033C11.6808 22.2033 11.4114 22.0936 11.1918 21.8741C10.9723 21.6544 10.8625 21.385 10.8625 21.0658C10.8625 20.7467 10.9723 20.4773 11.1918 20.2576C11.4114 20.0381 11.6808 19.9283 12 19.9283C12.3192 19.9283 12.5886 20.0381 12.8083 20.2576C13.0278 20.4773 13.1375 20.7467 13.1375 21.0658C13.1375 21.385 13.0278 21.6544 12.8083 21.8741C12.5886 22.0936 12.3192 22.2033 12 22.2033Z" /></g></symbol><mask id="arrow-up_mask0_21_954" style="mask-type:alpha" maskUnits="userSpaceOnUse" x="0" y="0" width="24" height="24"><rect width="24" height="24" fill="#D9D9D9" /></mask><symbol viewBox="0 0 24 24" id="dropdown"><g mask="url(#dropdown_mask0_53_22)"><path d="M12 15.1913L6.67126 9.86255H17.3288L12 15.1913Z" /></g></symbol><mask id="dropdown_mask0_53_22" style="mask-type:alpha" maskUnits="userSpaceOnUse" x="0" y="0" width="24" height="24"><rect width="24" height="24" fill="#D9D9D9" /></mask><symbol viewBox="0 0 24 24" id="humidity"><g mask="url(#humidity_mask0_19_169)"><path d="M12 21.7032C9.7315 21.7032 7.79717 20.9186 6.197 19.3495C4.59684 17.7803 3.79675 15.8678 3.79675 13.612C3.79675 12.5301 4.00592 11.496 4.42425 10.5097C4.84259 9.52354 5.43867 8.65379 6.2125 7.90046L10.4088 3.77921C10.6366 3.56804 10.8873 3.40646 11.1608 3.29446C11.4344 3.18263 11.7142 3.12671 12 3.12671C12.2858 3.12671 12.5656 3.18263 12.8393 3.29446C13.1128 3.40646 13.3634 3.56804 13.5913 3.77921L17.7875 7.90046C18.5613 8.65379 19.1574 9.52354 19.5758 10.5097C19.9941 11.496 20.2033 12.5301 20.2033 13.612C20.2033 15.8678 19.4032 17.7803 17.803 19.3495C16.2028 20.9186 14.2685 21.7032 12 21.7032Z" /></g></symbol><mask id="humidity_mask0_19_169" style="mask-type:alpha" maskUnits="userSpaceOnUse" x="0" y="0" width="24" height="24"><rect width="24" height="24" fill="#D9D9D9" /></mask><symbol viewBox="0 0 24 24" id="location"><g mask="url(#location_mask0_19_193)"><path d="M11.9985 21.4924C11.7502 21.4924 11.5023 21.4487 11.2548 21.3614C11.0071 21.274 10.7859 21.143 10.5913 20.9684C9.48409 19.9564 8.50584 18.9734 7.6565 18.0194C6.80717 17.0654 6.09842 16.1386 5.53025 15.2391C4.96192 14.3395 4.53092 13.4681 4.23725 12.6251C3.94359 11.7821 3.79675 10.9657 3.79675 10.1759C3.79675 7.62121 4.62134 5.58605 6.2705 4.07038C7.91967 2.55455 9.8295 1.79663 12 1.79663C14.1705 1.79663 16.0803 2.55455 17.7295 4.07038C19.3787 5.58605 20.2033 7.62121 20.2033 10.1759C20.2033 10.9657 20.0564 11.7821 19.7628 12.6251C19.4691 13.4681 19.0381 14.3395 18.4698 15.2391C17.9016 16.1386 17.1928 17.0654 16.3435 18.0194C15.4942 18.9734 14.5159 19.9564 13.4088 20.9684C13.2136 21.143 12.9918 21.274 12.7435 21.3614C12.4952 21.4487 12.2468 21.4924 11.9985 21.4924ZM12 12.0596C12.57 12.0596 13.0558 11.8588 13.4573 11.4571C13.8589 11.0556 14.0598 10.5699 14.0598 9.99988C14.0598 9.42988 13.8589 8.94413 13.4573 8.54263C13.0558 8.14096 12.57 7.94013 12 7.94013C11.43 7.94013 10.9443 8.14096 10.5428 8.54263C10.1411 8.94413 9.94025 9.42988 9.94025 9.99988C9.94025 10.5699 10.1411 11.0556 10.5428 11.4571C10.9443 11.8588 11.43 12.0596 12 12.0596Z" /></g></symbol><mask id="location_mask0_19_193" style="mask-type:alpha" maskUnits="userSpaceOnUse" x="0" y="0" width="24" height="24"><rect width="24" height="24" fill="#D9D9D9" /></mask><symbol viewBox="0 0 24 24" id="night"><g mask="url(#night_mask0_21_437)"><path d="M12.1 22.1194C10.684 22.1194 9.35658 21.8497 8.11774 21.3104C6.87874 20.7712 5.79908 20.0415 4.87874 19.1212C3.95841 18.2008 3.22866 17.1212 2.68949 15.8822C2.15016 14.6433 1.88049 13.3159 1.88049 11.8999C1.88049 9.78658 2.46749 7.86516 3.64149 6.13566C4.81566 4.40633 6.39116 3.16583 8.36799 2.41416C8.80233 2.23299 9.21474 2.27083 9.60524 2.52766C9.99558 2.78449 10.1924 3.14641 10.1957 3.61341C10.1856 4.99024 10.4255 6.30441 10.9155 7.55591C11.4055 8.80741 12.1366 9.91916 13.1087 10.8912C14.0807 11.8633 15.1915 12.5934 16.441 13.0814C17.6905 13.5694 19.0017 13.8103 20.3745 13.8042C20.8755 13.8115 21.2531 13.9982 21.5072 14.3644C21.7614 14.7304 21.8059 15.129 21.6407 15.5602C20.8756 17.5443 19.6275 19.1336 17.8965 20.3279C16.1655 21.5222 14.2333 22.1194 12.1 22.1194Z" /></g></symbol><mask id="night_mask0_21_437" style="mask-type:alpha" maskUnits="userSpaceOnUse" x="0" y="0" width="24" height="24"><rect width="24" height="24" fill="#D9D9D9" /></mask><symbol viewBox="0 0 24 24" id="progress"><g mask="url(#progress_mask0_66_178)"><path d="M12 22.2031C10.6015 22.2031 9.282 21.9355 8.0415 21.4001C6.801 20.865 5.71775 20.1343 4.79175 19.2081C3.86559 18.2821 3.13492 17.1989 2.59975 15.9584C2.06442 14.7179 1.79675 13.3984 1.79675 11.9999C1.79675 10.588 2.06434 9.26555 2.5995 8.03238C3.13484 6.79921 3.8655 5.71913 4.7915 4.79213C5.7175 3.86513 6.80075 3.13413 8.04125 2.59913C9.28192 2.06413 10.6015 1.79663 12 1.79663C12.3192 1.79663 12.5886 1.90638 12.8083 2.12588C13.0278 2.34555 13.1375 2.61496 13.1375 2.93413C13.1375 3.2533 13.0278 3.52271 12.8083 3.74238C12.5886 3.96188 12.3192 4.07163 12 4.07163C9.80317 4.07163 7.93259 4.8438 6.38825 6.38813C4.84392 7.93246 4.07175 9.80305 4.07175 11.9999C4.07175 14.1965 4.84392 16.0671 6.38825 17.6116C7.93259 19.156 9.80317 19.9281 12 19.9281C14.1967 19.9281 16.0673 19.156 17.6118 17.6116C19.1561 16.0673 19.9283 14.1967 19.9283 11.9999C19.9283 11.6807 20.038 11.4113 20.2575 11.1916C20.4772 10.9721 20.7466 10.8624 21.0658 10.8624C21.3849 10.8624 21.6543 10.9721 21.874 11.1916C22.0935 11.4113 22.2033 11.6807 22.2033 11.9999C22.2033 13.3984 21.9357 14.718 21.4005 15.9586C20.8652 17.1993 20.1345 18.2827 19.2085 19.2089C18.2825 20.135 17.2027 20.8656 15.969 21.4006C14.7353 21.9356 13.4123 22.2031 12 22.2031Z" /></g></symbol><mask id="progress_mask0_66_178" style="mask-type:alpha" maskUnits="userSpaceOnUse" x="0" y="0" width="24" height="24"><rect width="24" height="24" fill="#D9D9D9" /></mask><symbol viewBox="0 0 24 24" id="rain"><g mask="url(#rain_mask0_19_175)"><path d="M4.98573 11.9597C4.7039 12.109 4.4149 12.1319 4.11873 12.0282C3.82257 11.9245 3.59982 11.7318 3.45048 11.4499L0.980483 6.50969C0.831149 6.22786 0.808316 5.93886 0.911983 5.64269C1.01565 5.34636 1.2084 5.12561 1.49023 4.98044C1.77207 4.83511 2.06107 4.81327 2.35723 4.91494C2.65357 5.01661 2.87432 5.20836 3.01948 5.49019L5.48973 10.4304C5.6349 10.7123 5.65773 11.0003 5.55823 11.2944C5.45857 11.5886 5.26773 11.8104 4.98573 11.9597ZM8.51573 19.0194C8.2339 19.1688 7.9439 19.1926 7.64573 19.0909C7.3474 18.9893 7.12365 18.7955 6.97448 18.5097L5.00423 14.5694C4.85907 14.2876 4.83823 13.9996 4.94173 13.7054C5.0454 13.4113 5.23815 13.1895 5.51998 13.0402C5.80198 12.8909 6.09007 12.868 6.38423 12.9717C6.6784 13.0754 6.90015 13.2681 7.04948 13.5499L9.02548 17.4902C9.17082 17.772 9.19265 18.06 9.09098 18.3542C8.98932 18.6485 8.79757 18.8703 8.51573 19.0194ZM10.53 13.9597C10.248 14.109 9.9589 14.1319 9.66273 14.0282C9.36657 13.9245 9.14382 13.7318 8.99448 13.4499L5.52448 6.50969C5.37515 6.22786 5.35232 5.93886 5.45598 5.64269C5.55965 5.34636 5.7524 5.12561 6.03423 4.98044C6.31607 4.83511 6.60507 4.81327 6.90123 4.91494C7.19757 5.01661 7.42032 5.20836 7.56948 5.49019L11.0397 12.4304C11.1849 12.7123 11.2067 13.0003 11.1052 13.2944C11.0036 13.5886 10.8118 13.8104 10.53 13.9597ZM12.6857 8.95969C12.4039 9.10902 12.1149 9.13286 11.8187 9.03119C11.5226 8.92952 11.2998 8.73577 11.1505 8.44994L10.1995 6.50969C10.0541 6.22786 10.0333 5.93886 10.137 5.64269C10.2406 5.34636 10.4334 5.12361 10.7152 4.97444C10.9971 4.82511 11.2819 4.80327 11.5697 4.90894C11.8577 5.01461 12.0763 5.20836 12.2255 5.49019L13.1957 7.43044C13.3409 7.71227 13.3627 8.00028 13.2612 8.29444C13.1596 8.58861 12.9677 8.81036 12.6857 8.95969ZM13.3157 18.9944C13.0339 19.1438 12.7439 19.1708 12.4457 19.0754C12.1474 18.9801 11.9236 18.7915 11.7745 18.5097L10.8042 16.5694C10.6551 16.2876 10.6332 15.9986 10.7387 15.7024C10.8444 15.4063 11.0381 15.1835 11.32 15.0342C11.602 14.8889 11.8901 14.868 12.1842 14.9717C12.4784 15.0754 12.7001 15.2681 12.8495 15.5499L13.8255 17.4842C13.9748 17.766 13.9977 18.0509 13.894 18.3387C13.7903 18.6267 13.5976 18.8453 13.3157 18.9944ZM17.9657 18.9944C17.6839 19.1438 17.3949 19.1708 17.0987 19.0754C16.8024 18.9801 16.5796 18.7915 16.4305 18.5097L12.9602 11.5694C12.8151 11.2876 12.7932 10.9996 12.8947 10.7054C12.9964 10.4113 13.1881 10.1895 13.47 10.0402C13.752 9.89086 14.0411 9.86802 14.3372 9.97169C14.6334 10.0754 14.8561 10.2681 15.0055 10.5499L18.4755 17.4842C18.6208 17.766 18.6426 18.0509 18.541 18.3387C18.4393 18.6267 18.2476 18.8453 17.9657 18.9944ZM19.4857 12.9597C19.2039 13.109 18.9139 13.1319 18.6157 13.0282C18.3176 12.9245 18.0938 12.7318 17.9445 12.4499L14.9745 6.50969C14.8251 6.22786 14.8033 5.93886 14.909 5.64269C15.0146 5.34636 15.2084 5.12361 15.4902 4.97444C15.7721 4.82511 16.0601 4.80327 16.3542 4.90894C16.6486 5.01461 16.8703 5.20836 17.0195 5.49019L19.9897 11.4304C20.1349 11.7123 20.1577 12.0003 20.0582 12.2944C19.9586 12.5886 19.7677 12.8104 19.4857 12.9597ZM22.5157 19.0194C22.2339 19.1688 21.9439 19.1916 21.6457 19.0879C21.3474 18.9843 21.1237 18.7915 20.9745 18.5097L19.5042 15.5694C19.3551 15.2876 19.3332 14.9986 19.4387 14.7024C19.5444 14.4063 19.7381 14.1835 20.02 14.0342C20.302 13.8849 20.5901 13.863 20.8842 13.9687C21.1784 14.0744 21.4001 14.2681 21.5495 14.5499L23.0195 17.4902C23.1648 17.772 23.1877 18.06 23.088 18.3542C22.9883 18.6485 22.7976 18.8703 22.5157 19.0194Z" /></g></symbol><mask id="rain_mask0_19_175" style="mask-type:alpha" maskUnits="userSpaceOnUse" x="0" y="0" width="24" height="24"><rect width="24" height="24" fill="#D9D9D9" /></mask><symbol viewBox="0 0 24 24" id="search"><g mask="url(#search_mask0_21_796)"><path d="M9.4522 16.1375C7.59953 16.1375 6.03011 15.4945 4.74395 14.2083C3.45778 12.922 2.8147 11.3525 2.8147 9.50005C2.8147 7.64755 3.45778 6.07813 4.74395 4.7918C6.03011 3.50563 7.59953 2.86255 9.4522 2.86255C11.3047 2.86255 12.874 3.50563 14.1602 4.7918C15.4465 6.07813 16.0897 7.64755 16.0897 9.50005C16.0897 10.2414 15.977 10.934 15.7517 11.578C15.5262 12.222 15.2214 12.79 14.8374 13.282L20.3897 18.8403C20.6009 19.0555 20.7064 19.3216 20.7064 19.6388C20.7064 19.9561 20.5989 20.2204 20.3837 20.4315C20.1724 20.6427 19.9071 20.7483 19.5879 20.7483C19.2688 20.7483 19.0036 20.6427 18.7924 20.4315L13.2462 14.8853C12.7502 15.2695 12.1782 15.5742 11.5302 15.7995C10.8822 16.0249 10.1895 16.1375 9.4522 16.1375ZM9.4522 13.8625C10.6662 13.8625 11.6968 13.439 12.5439 12.5918C13.3911 11.7448 13.8147 10.7142 13.8147 9.50005C13.8147 8.28588 13.3911 7.2553 12.5439 6.4083C11.6968 5.56113 10.6662 5.13755 9.4522 5.13755C8.23803 5.13755 7.20736 5.56113 6.3602 6.4083C5.5132 7.2553 5.0897 8.28588 5.0897 9.50005C5.0897 10.7142 5.5132 11.7448 6.3602 12.5918C7.20736 13.439 8.23803 13.8625 9.4522 13.8625Z" /></g></symbol><mask id="search_mask0_21_796" style="mask-type:alpha" maskUnits="userSpaceOnUse" x="0" y="0" width="24" height="24"><rect width="24" height="24" fill="#D9D9D9" /></mask><symbol viewBox="0 0 24 24" id="temperature"><g mask="url(#temperature_mask0_19_181)"><path d="M14.1556 11.0896C13.8467 11.0896 13.5879 10.9852 13.3791 10.7764C13.1702 10.5674 13.0658 10.3085 13.0658 9.99988C13.0658 9.69121 13.1702 9.43238 13.3791 9.22338C13.5879 9.01455 13.8467 8.91013 14.1556 8.91013H17.2511C17.5599 8.91013 17.8187 9.01455 18.0276 9.22338C18.2364 9.43238 18.3408 9.69121 18.3408 9.99988C18.3408 10.3085 18.2364 10.5674 18.0276 10.7764C17.8187 10.9852 17.5599 11.0896 17.2511 11.0896H14.1556ZM14.1556 6.91013C13.8467 6.91013 13.5879 6.80438 13.3791 6.59288C13.1702 6.38121 13.0658 6.1218 13.0658 5.81463C13.0658 5.5073 13.1702 5.24888 13.3791 5.03938C13.5879 4.82971 13.8467 4.72488 14.1556 4.72488H20.2511C20.5599 4.72488 20.8187 4.8293 21.0276 5.03813C21.2364 5.24697 21.3408 5.5058 21.3408 5.81463C21.3408 6.1218 21.2364 6.38121 21.0276 6.59288C20.8187 6.80438 20.5599 6.91013 20.2511 6.91013H14.1556ZM7.8153 21.2031C6.3758 21.2031 5.14964 20.6958 4.1368 19.6811C3.12397 18.6665 2.61755 17.4394 2.61755 15.9999C2.61755 15.1879 2.79255 14.4281 3.14255 13.7206C3.49255 13.013 3.98422 12.4095 4.61755 11.9101V5.99988C4.61755 5.11005 4.92847 4.35371 5.5503 3.73088C6.17214 3.10805 6.9273 2.79663 7.8158 2.79663C8.70414 2.79663 9.45997 3.10805 10.0833 3.73088C10.7065 4.35371 11.0181 5.11005 11.0181 5.99988V11.9101C11.6514 12.4095 12.1431 13.013 12.4931 13.7206C12.8431 14.4281 13.0181 15.1879 13.0181 15.9999C13.0181 17.4394 12.5107 18.6665 11.4961 19.6811C10.4816 20.6958 9.25464 21.2031 7.8153 21.2031ZM4.89255 15.9999H10.7431C10.7431 15.5005 10.6319 15.0376 10.4096 14.6111C10.1872 14.1845 9.87647 13.8315 9.4773 13.5521L8.74305 13.0179V5.99988C8.74305 5.74038 8.65314 5.5208 8.4733 5.34113C8.29364 5.16147 8.07414 5.07163 7.8148 5.07163C7.5553 5.07163 7.33672 5.16147 7.15905 5.34113C6.98139 5.5208 6.89255 5.74038 6.89255 5.99988V13.0179L6.1643 13.5521C5.76097 13.8355 5.44814 14.1905 5.2258 14.6171C5.00364 15.044 4.89255 15.5049 4.89255 15.9999Z" /></g></symbol><mask id="temperature_mask0_19_181" style="mask-type:alpha" maskUnits="userSpaceOnUse" x="0" y="0" width="24" height="24"><rect width="24" height="24" fill="#D9D9D9" /></mask></defs><use id="air-usage" xlink:href="#air" class="sprite-symbol-usage" /><use id="arrow-up-usage" xlink:href="#arrow-up" class="sprite-symbol-usage" /><use id="dropdown-usage" xlink:href="#dropdown" class="sprite-symbol-usage" /><use id="humidity-usage" xlink:href="#humidity" class="sprite-symbol-usage" /><use id="location-usage" xlink:href="#location" class="sprite-symbol-usage" /><use id="night-usage" xlink:href="#night" class="sprite-symbol-usage" /><use id="progress-usage" xlink:href="#progress" class="sprite-symbol-usage" /><use id="rain-usage" xlink:href="#rain" class="sprite-symbol-usage" /><use id="search-usage" xlink:href="#search" class="sprite-symbol-usage" /><use id="temperature-usage" xlink:href="#temperature" class="sprite-symbol-usage" /></svg>